<svg width="50" height="39" viewBox="0 0 50 39" fill="none" xmlns="http://www.w3.org/2000/svg">
<path d="M5.55556 0C2.49132 0 0 2.49844 0 5.57143V33.4286C0 36.5016 2.49132 39 5.55556 39H44.4444C47.5087 39 50 36.5016 50 33.4286V5.57143C50 2.49844 47.5087 0 44.4444 0H5.55556ZM12.5 22.2857H18.0556C21.8924 22.2857 25 25.4022 25 29.25C25 30.0161 24.375 30.6429 23.6111 30.6429H6.94444C6.18056 30.6429 5.55556 30.0161 5.55556 29.25C5.55556 25.4022 8.66319 22.2857 12.5 22.2857ZM9.72222 13.9286C9.72222 12.4509 10.3075 11.0338 11.3494 9.98898C12.3913 8.94413 13.8044 8.35714 15.2778 8.35714C16.7512 8.35714 18.1643 8.94413 19.2061 9.98898C20.248 11.0338 20.8333 12.4509 20.8333 13.9286C20.8333 15.4062 20.248 16.8233 19.2061 17.8682C18.1643 18.913 16.7512 19.5 15.2778 19.5C13.8044 19.5 12.3913 18.913 11.3494 17.8682C10.3075 16.8233 9.72222 15.4062 9.72222 13.9286ZM31.9444 11.1429H43.0556C43.8194 11.1429 44.4444 11.7696 44.4444 12.5357C44.4444 13.3018 43.8194 13.9286 43.0556 13.9286H31.9444C31.1806 13.9286 30.5556 13.3018 30.5556 12.5357C30.5556 11.7696 31.1806 11.1429 31.9444 11.1429ZM31.9444 16.7143H43.0556C43.8194 16.7143 44.4444 17.3411 44.4444 18.1071C44.4444 18.8732 43.8194 19.5 43.0556 19.5H31.9444C31.1806 19.5 30.5556 18.8732 30.5556 18.1071C30.5556 17.3411 31.1806 16.7143 31.9444 16.7143ZM31.9444 22.2857H43.0556C43.8194 22.2857 44.4444 22.9125 44.4444 23.6786C44.4444 24.4446 43.8194 25.0714 43.0556 25.0714H31.9444C31.1806 25.0714 30.5556 24.4446 30.5556 23.6786C30.5556 22.9125 31.1806 22.2857 31.9444 22.2857Z" fill="white"/>
</svg>
