<svg width="41" height="41" viewBox="0 0 41 41" fill="none" xmlns="http://www.w3.org/2000/svg">
<g id="Frame" clip-path="url(#clip0_11_36)">
<path id="Vector" d="M26.5099 0.209744C21.0099 -1.44026 15.8432 7.04308 13.5099 11.7097C-2.89012 15.1929 -0.990116 24.1611 2.00988 28.2097C-4.99012 37.2097 10.5099 47.2097 16.5099 33.7097L18.0099 34.2097C20.5099 43.2097 30.5099 40.7097 32.0099 36.7097C44.5099 35.7097 41.0099 23.7097 35.0099 21.7097C45.0099 18.2097 38.5099 5.70974 33.0099 7.20974C32.5099 4.20974 31.5099 1.70974 26.5099 0.209744Z" fill="white" fill-opacity="0.34"/>
<path id="Vector_2" d="M7.37695 33L24.8402 8V33M32.0092 14.9853C13.1367 20.6225 -13.2849 22.8529 32.0092 29.3235" stroke="#D6D6D6" stroke-width="5" stroke-linecap="round" stroke-linejoin="round"/>
</g>
<defs>
<clipPath id="clip0_11_36">
<rect width="41" height="41" fill="white"/>
</clipPath>
</defs>
</svg>
